<?xml version="1.0" encoding="UTF-8"?>
<svg id="Layer_1" data-name="Layer 1" xmlns="http://www.w3.org/2000/svg" viewBox="0 0 898 147">
  <defs>
    <style>
      .cls-1 {
        fill: #fff;
        stroke-width: 0px;
      }
    </style>
  </defs>
  <path class="cls-1" d="m494.07,147c4.29-9.22,8.27-17.98,12.53-26.6.47-.95,2.54-1.57,3.87-1.57,24.53-.09,49.06-.07,73.59-.07,11.99,0,23.98-.07,35.97.09,2.77.04,4.17-.92,5.31-3.37,3.96-8.55,8.14-17.01,12.22-25.51.13-.27.06-.63.11-1.25-.88-.09-1.71-.24-2.54-.24-31.53-.02-63.07-.02-94.6-.03-1.66,0-3.34.08-4.99-.07-7.03-.62-10.54-5.94-7.89-12.48,2.91-7.2,6.21-14.24,9.4-21.32,5.7-12.65,11.43-25.28,17.19-37.91,4.77-10.46,12.5-16.09,24.44-16.05,43.97.17,87.94.07,131.92.07h3.59c-1.3,2.87-2.34,5.25-3.43,7.59-2.9,6.24-5.93,12.42-8.66,18.73-1.02,2.35-2.41,3.01-4.84,3.01-36.3-.07-72.6,0-108.9-.14-3.45-.01-5.06,1.03-6.35,4.23-3.29,8.22-7.03,16.26-10.82,24.9,1.27.16,2.27.39,3.27.39,32.76.02,65.51-.01,98.27.06,2.14,0,4.55.31,6.36,1.32,4.16,2.31,4.99,6.83,2.59,12-3.77,8.16-7.57,16.3-11.39,24.44-5.32,11.35-10.46,22.79-16.1,33.99-2.05,4.07-4.89,7.93-8.08,11.19-3.56,3.64-8.24,5-13.62,4.98-44.75-.17-89.5-.09-134.25-.1-1.27,0-2.53-.16-4.2-.28Z"/>
  <path class="cls-1" d="m334.78,103.69h-30.89c-.13-.24-.27-.48-.4-.72.69-.6,1.29-1.39,2.08-1.79,10.82-5.38,21.68-10.69,32.52-16.04,1.02-.5,1.97-1.13,2.96-1.7-.05-.28-.1-.56-.15-.84-28.13-5.15-56.26-10.3-84.39-15.45,0-.35.02-.7.03-1.05,1.1-.07,2.19-.21,3.29-.21,33.86.03,67.72.06,101.58.17,2.32,0,3.87-.6,5.36-2.47,13.5-17.05,27.09-34.04,40.71-51,1.87-2.33,3.93-4.53,6.13-6.55,3.98-3.65,8.59-5.46,14.2-5.42,21.87.18,43.74.07,65.62.08,6.62,0,9.92,3.28,9.23,9.97-1.18,11.46-2.76,22.89-4.19,34.33-2.97,23.79-5.95,47.58-8.92,71.37-1.17,9.37-2.38,18.73-3.41,28.11-.26,2.37-1.3,2.88-3.44,2.86-9.21-.09-18.43-.15-27.64.01-2.89.05-3.58-.75-3.18-3.63,1.71-12.3,3.13-24.65,4.81-36.96.36-2.62-.38-3.26-2.93-3.25-25.2.08-50.41.09-75.61,0-2.7,0-4.51.78-6.2,2.93-10.21,13.01-20.52,25.94-30.89,38.82-.79.98-2.28,1.95-3.45,1.96-11.66.15-23.31.09-34.97.08-.52,0-1.03-.16-2.31-.38,11.56-14.5,22.78-28.58,34.46-43.23Zm60.05-17.38c1.61.49,2.1.68,2.61.79,18.72,4.1,37.43,8.21,56.15,12.29,4.02.88,3.96.83,4.48-3.4,2.6-20.92,5.19-41.84,7.93-62.74.34-2.62-.27-3.34-2.82-3.31-9.21.1-18.42-.06-27.62.14-1.48.03-3.38,1.05-4.34,2.23-8.49,10.39-16.83,20.91-25.19,31.41-.43.54-.67,1.22-1.31,2.43h28.42c.08.31.16.62.23.93-12.56,6.26-25.12,12.53-38.55,19.23Z"/>
  <path class="cls-1" d="m794.86,146.72c8.92-19.35,17.74-38.51,26.73-58.01-1.21-.13-1.94-.28-2.66-.28-24.65,0-49.3.04-73.95-.05-2.63-.01-4,.86-5.05,3.22-7.86,17.64-15.85,35.22-23.7,52.86-.96,2.16-2.14,2.91-4.5,2.88-9.99-.13-19.99-.05-29.98-.06-.84,0-1.69-.15-3.01-.27,2.2-4.85,4.23-9.35,6.3-13.84,8.98-19.57,17.96-39.14,26.96-58.7,9.98-21.67,19.98-43.32,29.97-64.98.88-1.91,1.94-3.77,2.59-5.76.79-2.39,2.13-3.14,4.66-3.1,9.55.16,19.1.07,28.65.07h3.79c-9.08,19.85-17.9,39.1-26.89,58.75,1.29.11,2.24.26,3.18.26,24.72.01,49.45-.02,74.17.07,2.28,0,3.35-.83,4.24-2.8,8.05-17.8,16.22-35.54,24.24-53.35.95-2.12,1.97-3.03,4.41-3,9.88.15,19.76.06,29.65.07.86,0,1.71.11,3.14.21-.92,2.13-1.65,3.92-2.46,5.68-10.39,22.57-20.8,45.13-31.19,67.7-10.86,23.6-21.67,47.21-32.6,70.77-.45.98-1.86,2.14-2.83,2.16-10.88.13-21.76.05-32.64.02-.2,0-.41-.16-1.23-.5Z"/>
  <path class="cls-1" d="m75.93,61.49h79.65c-1.05,2.57-1.8,4.56-2.68,6.49-3.05,6.66-6.21,13.26-9.18,19.95-.92,2.07-2.17,2.65-4.36,2.64-24.53-.08-49.06-.02-73.59-.1-2.57,0-3.85.74-4.96,3.22-7.68,17.1-15.56,34.12-23.51,51.09-.52,1.11-2.18,2.39-3.33,2.41-10.43.18-20.87.11-31.3.08-.71,0-1.43-.29-2.46-.52,3.24-7.1,6.34-13.92,9.47-20.73,12.34-26.91,24.68-53.82,37.04-80.72,4.73-10.28,9.25-20.67,14.37-30.75,4.49-8.84,11.72-13.89,22.08-13.88,41.96.06,83.91.02,125.87.03,1.06,0,2.11.1,3.69.18-2.77,6.06-5.32,11.66-7.89,17.26-1.39,3.03-2.87,6.01-4.18,9.07-.91,2.12-2.26,2.83-4.63,2.83-33.97-.09-67.93,0-101.9-.14-3.22-.01-4.68,1.11-5.92,3.92-3.83,8.73-7.95,17.34-11.94,26.01-.17.37-.18.82-.35,1.66Z"/>
  <path class="cls-1" d="m214.22,118.81h92.17c-3.85,4.84-7.11,8.96-10.39,13.06-3.46,4.34-7,8.61-10.38,13.01-1.33,1.72-2.74,2.48-5.02,2.47-34.29-.09-68.58-.06-102.88-.07-5.53,0-8.94-4.01-7.54-9.39.86-3.29,2.36-6.44,3.79-9.55,17-36.97,34.05-73.93,51.08-110.89,2.18-4.73,4.18-9.55,6.52-14.21.57-1.12,2.15-2.44,3.28-2.46,10.65-.18,21.31-.11,31.96-.09.31,0,.62.18,1.49.45-17.96,39.08-35.87,78.04-54.08,117.66Z"/>
</svg>